<svg width="36" height="36" viewBox="0 0 36 36" fill="none" xmlns="http://www.w3.org/2000/svg">
<path d="M18 3.6001C12.0354 3.6001 7.20005 8.43542 7.20005 14.4001V20.8545L5.92725 22.1273C5.41246 22.6421 5.25846 23.4163 5.53706 24.0889C5.81567 24.7615 6.47201 25.2001 7.20005 25.2001H28.8C29.5281 25.2001 30.1844 24.7615 30.463 24.0889C30.7416 23.4163 30.5876 22.6421 30.0728 22.1273L28.8 20.8545V14.4001C28.8 8.43542 23.9647 3.6001 18 3.6001Z" fill="#059669"/>
<path d="M18 32.4001C15.0177 32.4001 12.6 29.9824 12.6 27.0001H23.4C23.4 29.9824 20.9823 32.4001 18 32.4001Z" fill="#059669"/>
</svg>
