<svg width="36" height="36" viewBox="0 0 36 36" fill="none" xmlns="http://www.w3.org/2000/svg">
<path fill-rule="evenodd" clip-rule="evenodd" d="M10.8 3.6001C9.80589 3.6001 9.00001 4.40599 9.00001 5.4001V7.2001H7.20001C5.21178 7.2001 3.60001 8.81187 3.60001 10.8001V28.8001C3.60001 30.7883 5.21178 32.4001 7.20001 32.4001H28.8C30.7882 32.4001 32.4 30.7883 32.4 28.8001V10.8001C32.4 8.81187 30.7882 7.2001 28.8 7.2001H27V5.4001C27 4.40599 26.1941 3.6001 25.2 3.6001C24.2059 3.6001 23.4 4.40599 23.4 5.4001V7.2001H12.6V5.4001C12.6 4.40599 11.7941 3.6001 10.8 3.6001ZM10.8 12.6001C9.80589 12.6001 9.00001 13.406 9.00001 14.4001C9.00001 15.3942 9.80589 16.2001 10.8 16.2001H25.2C26.1941 16.2001 27 15.3942 27 14.4001C27 13.406 26.1941 12.6001 25.2 12.6001H10.8Z" fill="#059669"/>
</svg>
