<svg width="36" height="36" viewBox="0 0 36 36" fill="none" xmlns="http://www.w3.org/2000/svg">
<path fill-rule="evenodd" clip-rule="evenodd" d="M6 4.5C6.82843 4.5 7.5 5.17157 7.5 6V9.51448C9.97407 6.45669 13.7575 4.5 18 4.5C24.8855 4.5 30.565 9.65345 31.3956 16.3144C31.4981 17.1365 30.9148 17.886 30.0928 17.9885C29.2707 18.091 28.5212 17.5077 28.4187 16.6856C27.773 11.5076 23.3534 7.5 18 7.5C14.4335 7.5 11.28 9.2785 9.38164 12H13.5C14.3284 12 15 12.6716 15 13.5C15 14.3284 14.3284 15 13.5 15H6C5.17157 15 4.5 14.3284 4.5 13.5V6C4.5 5.17157 5.17157 4.5 6 4.5ZM5.90723 18.0115C6.72929 17.909 7.4788 18.4923 7.58131 19.3144C8.227 24.4924 12.6466 28.5 18 28.5C21.5665 28.5 24.72 26.7215 26.6184 24H22.5C21.6716 24 21 23.3284 21 22.5C21 21.6716 21.6716 21 22.5 21H30C30.8284 21 31.5 21.6716 31.5 22.5V30C31.5 30.8284 30.8284 31.5 30 31.5C29.1716 31.5 28.5 30.8284 28.5 30V26.4855C26.0259 29.5433 22.2425 31.5 18 31.5C11.1145 31.5 5.43498 26.3465 4.60437 19.6856C4.50186 18.8635 5.08517 18.114 5.90723 18.0115Z" fill="#C47E09"/>
</svg>
